P2
20 20
255
10 10 10 10 10 10 10 10 10 10 10 13 13 13 13 13 13 13 13 13 
10 10 10 10 10 10 10 10 10 10 10 10 10 10 10 10 10 10 10 15
10 10 10 10 10 10 10 10 10 10 10 10 10 10 10 10 10 10 10 15
10 10 10 10 10 10 10 10 10 10 10 10 10 10 10 10 10 10 10 15
10 10 10 10 10 10 10 10 10 10 10 10 10 10 10 10 10 10 10 15
10 11 11 11 11 10 10 10 10 10 10 10 10 10 10 10 10 10 10 14
10 11 11 11 11 10 10 10 10 10 10 10 10 10 10 10 10 10 10 13
10 11 11 11 11 10 10 10 10 10 10 10 10 10 10 10 10 10 10 12
10 12 12 12 12 12 12 10 10 10 10 10 10 10 10 10 10 10 10 11
10 12 12 12 12 12 12 12 10 10 10 10 10 10 10 10 10 10 10 9
10 10 10 10 10 10 10 10 10 10 10 10 10 10 10 10 10 10 10 8
10 10 10 10 10 10 10 10 10 10 10 10 10 10 10 10 10 10 10 10
10 10 10 10 10 10 10 10 10 10 10 10 12 12 12 12 12 10 10 10
10 11 11 11 11 10 10 10 10 10 10 10 12 12 12 12 12 12 10 10
10 11 11 11 11 10 10 10 10 10 10 10 10 10 10 10 10 10 10 10
10 11 11 11 11 10 10 10 10 10 10 10 10 10 10 10 10 10 10 10
10 10 10 10 10 10 10 10 10 10 10 10 10 10 10 10 10 10 10 10
10 10 10 10 10 10 10 10 10 10 10 10 10 10 10 10 10 10 10 10
10 10 10 10 10 10 10 10 10 10 10 10 10 10 10 10 10 10 10 10
10 10 10 10 10 10 10 10 10 10 10 10 10 10 10 10 10 10 10 10
